<?xml version="1.0" standalone="no"?>
<!DOCTYPE svg PUBLIC "-//W3C//DTD SVG 1.1//EN" "http://www.w3.org/Graphics/SVG/1.1/DTD/svg11.dtd">
<svg xmlns="http://www.w3.org/2000/svg">
<defs >
<font id="Exo2" horiz-adv-x="592" ><font-face
    font-family="Exo 2 ExtraBold"
    units-per-em="1000"
    panose-1="0 0 9 0 0 0 0 0 0 0"
    ascent="999"
    descent="-201"
    alphabetic="0" />
<glyph unicode=" " glyph-name="space" horiz-adv-x="213" />
<glyph unicode="!" glyph-name="exclam" horiz-adv-x="316" d="M248 445L229 223H86L67 445V695H248V445ZM214 170T227 157T241 107V63Q241 27 228 14T179 0H137Q102 0 89 13T75 63V107Q75 143 88 156T137 170H179Q214 170 227 157Z" />
<glyph unicode="&quot;" glyph-name="quotedbl" horiz-adv-x="385" d="M160 465H53L43 690H171L160 465ZM331 465H225L214 690H342L331 465Z" />
<glyph unicode="#" glyph-name="numbersign" horiz-adv-x="726" d="M569 414L548 296H658L638 189H530L497 0H362L395 189H279L246 0H111L144 189H26L47 296H162L183 414H68L89 521H202L231 690H366L337 521H453L482 690H617L588 521H700L680 414H569ZM434 414H318L297
296H413L434 414Z" />
<glyph unicode="$" glyph-name="dollar" horiz-adv-x="587" d="M557 117T536 74T465 11T328 -12L318 -114H183L194 -9Q121 -2 44 17L55 151Q253 146 291 146Q339 146 355 154T372 188Q372 212 361 223T317 246L183 301Q104 334 71 381T38 506Q38 582 61 623T136
683T277 703L288 791H423L411 698Q484 689 537 672L525 549Q504 549 492 550Q382 552 299 552Q253 552 237 544T221 509Q221 486 234 474T287 448L410 399Q491 366 524 318T557 192Q557 117 536 74Z" />
<glyph unicode="%" glyph-name="percent" horiz-adv-x="915" d="M271 704T309 685T365 622T382 498Q382 419 365 375T310 311T204 292Q137 292 99 311T45 374T28 498Q28 577 44 621T99 685T204 704Q271 704 309 685ZM315 0H203L598 690H710L315 0ZM185 607T177
600T165 570T161 498Q161 449 164 427T176 397T204 389Q223 389 232 396T244 426T248 498Q248 547 245 569T232 599T204 607Q185 607 177 600ZM777 399T815 380T871 317T888 193Q888 114 871 70T816 6T710 -13Q643 -13 605 6T551 69T534 193Q534 272 550 316T605
380T710 399Q777 399 815 380ZM691 301T682 294T670 265T667 193Q666 144 669 122T682 92T710 84Q729 84 738 91T750 121T754 193Q754 242 751 264T738 294T710 301Q691 301 682 294Z" />
<glyph unicode="&amp;" glyph-name="ampersand" horiz-adv-x="763" d="M737 10Q712 -1 670 -7T597 -13Q549 -13 516 4T466 54Q426 18 379 3T255 -13Q141 -13 92 30T42 176Q42 258 74 303T179 355V361Q118 367 91 405T64 520Q64 600 90 639T173 690T337 703Q437
703 502 690L480 566Q463 566 453 567Q387 569 332 569Q299 569 283 563T260 541T253 491Q253 445 267 429T325 413H457L468 510H622V413H718V295H622V172Q622 148 631 139T662 129H717L737 10ZM241 180T246 163T264 139T306 132Q342 132 382 139T451 160V295H314Q283
295 268 288T247 265T241 214Q241 180 246 163Z" />
<glyph unicode="&apos;" glyph-name="quotesingle" horiz-adv-x="214" d="M160 465H53L43 690H171L160 465Z" />
<glyph unicode="(" glyph-name="parenleft" horiz-adv-x="369" d="M357 713Q278 679 243 578T207 313Q207 152 242 51T357 -88L336 -165Q179 -120 105 -5T31 312Q31 514 105 630T336 790L357 713Z" />
<glyph unicode=")" glyph-name="parenright" horiz-adv-x="369" d="M190 746T264 630T338 312Q338 111 264 -4T33 -165L12 -88Q91 -51 126 50T162 313Q162 477 127 578T12 713L33 790Q190 746 264 630Z" />
<glyph unicode="*" glyph-name="asterisk" horiz-adv-x="454" d="M262 520L372 391L294 333L227 453L161 333L82 391L193 519L178 692H276L262 520ZM424 524L303 498L281 524L280 567L394 618L424 524ZM174 567V524L152 498L30 524L60 617L174 567Z" />
<glyph unicode="+" glyph-name="plus" horiz-adv-x="530" d="M497 235H332V73H199V235H33V369H198V532H332V369H497V235Z" />
<glyph unicode="," glyph-name="comma" horiz-adv-x="249" d="M178 170T191 157T206 107V43Q206 -21 192 -65T146 -155L76 -133Q91 -81 93 0Q42 0 40 56L42 107Q44 143 57 156T105 170H143Q178 170 191 157Z" />
<glyph unicode="-" glyph-name="hyphen" horiz-adv-x="395" d="M344 201H50V311H344V201Z" />
<glyph unicode="." glyph-name="period" horiz-adv-x="253" d="M184 170T197 157T211 107V63Q211 27 198 14T148 0H105Q69 0 56 13T42 63V107Q42 143 55 156T105 170H148Q184 170 197 157Z" />
<glyph unicode="/" glyph-name="slash" horiz-adv-x="571" d="M161 -76H17L410 690H554L161 -76Z" />
<glyph unicode="0" glyph-name="zero" horiz-adv-x="645" d="M428 704T489 670T577 559T604 345Q604 209 577 132T489 20T322 -14Q216 -14 156 20T68 131T41 345Q41 481 68 558T155 670T322 704Q428 704 489 670ZM282 561T262 545T234 483T226 345Q226 252 234
207T262 146T321 129Q361 129 381 145T410 207T418 345Q418 438 410 483T382 544T321 561Q282 561 262 545Z" />
<glyph unicode="1" glyph-name="one" horiz-adv-x="449" d="M368 0H181V457Q181 506 188 539L28 503L6 622L181 690H368V0Z" />
<glyph unicode="2" glyph-name="two" horiz-adv-x="590" d="M412 702T473 666T535 535Q535 495 527 465T495 401T427 320L257 153Q293 162 354 162H553V0H39V98Q39 122 45 139T65 173L220 333Q343 458 343 512Q343 533 327 539T267 545Q146 545 51 540L44 679Q114
693 170 697T291 702Q412 702 473 666Z" />
<glyph unicode="3" glyph-name="three" horiz-adv-x="572" d="M366 704T416 689T489 640T512 543Q512 463 489 421T402 369V365Q474 354 502 313T530 186Q530 114 506 71T427 7T282 -14Q169 -14 34 5L40 140Q144 134 231 134Q277 134 301 140T335 164T345 217Q345
263 327 281T255 298L123 297V417H255Q305 417 320 433T336 485Q336 517 329 532T303 552T246 557Q156 557 54 555L48 685Q162 704 279 704Q366 704 416 689Z" />
<glyph unicode="4" glyph-name="four" horiz-adv-x="649" d="M625 270V163L545 145H543V0H372V145H96Q62 145 40 167T17 220Q17 236 23 252L195 690H370L219 299Q216 292 216 287Q216 279 222 275T237 270H372V447L402 555H543V270H625Z" />
<glyph unicode="5" glyph-name="five" horiz-adv-x="560" d="M499 552H216L209 456L324 441Q526 418 526 217Q526 112 470 50T275 -12Q165 -12 30 8L47 149Q153 141 226 141Q271 141 295 148T329 172T341 219Q342 251 331 268T293 293T217 305L110 318Q85 321
70 338T56 380L74 690H506L499 552Z" />
<glyph unicode="6" glyph-name="six" horiz-adv-x="599" d="M443 455T487 434T549 366T567 241Q567 150 546 96T470 15T310 -12Q204 -12 147 17T66 121T42 338Q42 491 74 569T170 675T343 702Q450 702 521 682L513 566Q456 567 343 567Q296 567 272 556T237 512T223
414Q252 437 284 446T365 455Q443 455 487 434ZM348 124T365 135T386 168T391 237Q391 275 385 294T361 320T310 328Q286 328 267 322T222 302Q223 220 228 185T252 137T311 124Q348 124 365 135Z" />
<glyph unicode="7" glyph-name="seven" horiz-adv-x="535" d="M483 690T503 672T524 624Q524 610 520 598L312 0H128L294 466Q301 484 309 503T328 539H28L20 690H450Q483 690 503 672Z" />
<glyph unicode="8" glyph-name="eight" horiz-adv-x="630" d="M419 703T473 684T548 626T569 518Q569 457 543 412T464 360V356Q532 350 559 301T586 172Q586 102 564 63T483 5T315 -13Q208 -13 150 5T68 62T44 172Q44 251 71 300T167 356V360Q114 366 88 411T62
518Q62 586 82 625T157 684T315 703Q419 703 473 684ZM280 577T262 571T237 547T230 494Q230 462 237 446T263 424T318 418Q354 418 371 424T394 446T401 494Q401 529 394 546T370 570T316 577Q280 577 262 571ZM276 298T256 291T228 264T220 208Q220 172 228 154T256
129T316 122Q355 122 374 129T401 154T409 208Q409 246 402 264T375 290T317 298Q276 298 256 291Z" />
<glyph unicode="9" glyph-name="nine" horiz-adv-x="599" d="M402 702T457 673T534 570T555 352Q555 197 526 120T435 15T254 -12Q142 -12 62 8L71 125Q132 124 254 124Q300 124 324 137T360 183T374 277Q346 254 313 245T232 235Q122 235 78 291T34 454Q34 544
57 597T136 676T291 702Q402 702 457 673ZM209 416T216 397T239 370T289 362Q312 362 331 368T376 388Q375 470 370 505T348 554T289 567Q254 567 237 556T215 522T210 453Q209 416 216 397Z" />
<glyph unicode=":" glyph-name="colon" horiz-adv-x="269" d="M185 457T198 444T212 394V350Q212 314 199 301T149 287H106Q70 287 57 300T43 350V394Q43 430 56 443T106 457H149Q185 457 198 444ZM185 171T198 158T212 108V64Q212 28 199 15T149 1H106Q70 1 57
14T43 64V108Q43 144 56 157T106 171H149Q185 171 198 158Z" />
<glyph unicode=";" glyph-name="semicolon" horiz-adv-x="269" d="M193 457T206 444T220 394V350Q220 314 207 301T157 287H114Q78 287 65 300T51 350V394Q51 430 64 443T114 457H157Q193 457 206 444ZM187 170T200 157T215 107V43Q215 -21 201 -65T155 -155L85
-133Q100 -81 102 0Q51 0 49 56L51 107Q53 143 66 156T114 170H152Q187 170 200 157Z" />
<glyph unicode="&lt;" glyph-name="less" horiz-adv-x="511" d="M461 392L185 302L461 213V71L32 232V372L461 533V392Z" />
<glyph unicode="=" glyph-name="equal" horiz-adv-x="575" d="M523 343H52V471H523V343ZM523 129H52V256H523V129Z" />
<glyph unicode="&gt;" glyph-name="greater" horiz-adv-x="509" d="M476 372V232L50 71V213L323 302L50 392V533L476 372Z" />
<glyph unicode="?" glyph-name="question" horiz-adv-x="527" d="M393 712T447 674T502 557Q502 523 491 496T464 449T418 398Q375 354 351 316T321 223H177Q174 274 187 315T218 386T266 450Q286 474 296 489T309 520L310 529Q310 549 293 558T237 567L72 566Q60
565 32 565L27 686Q48 690 55 691Q111 703 155 707T281 712Q393 712 447 674ZM305 170T318 157T332 107V63Q332 27 319 14T269 0H228Q192 0 179 13T165 63V107Q165 143 178 156T228 170H269Q305 170 318 157Z" />
<glyph unicode="@" glyph-name="at" horiz-adv-x="781" d="M639 610T685 569T732 431V137H599L584 202Q557 170 515 148T420 125Q355 125 313 158T271 252V298Q271 351 307 381T409 412H565V431Q565 460 553 471T507 482H387Q300 481 268 471T225 420T213 269Q213
161 225 120T273 67T401 56H435H732V-59Q541 -74 425 -74Q248 -74 172 -50T72 42T47 269Q47 427 69 495T159 586T387 610H545Q639 610 685 569ZM472 327Q432 324 432 293V278Q432 242 474 242Q496 242 521 250T565 273V331L472 327Z" />
<glyph unicode="A" glyph-name="A" horiz-adv-x="668" d="M440 164H228L187 0H-5L184 641Q189 663 206 676T247 690H421Q444 690 461 677T485 641L673 0H481L440 164ZM406 300L361 477Q350 529 348 549H321Q314 511 307 477L262 300H406Z" />
<glyph unicode="B" glyph-name="B" horiz-adv-x="650" d="M548 348T582 303T616 172Q616 102 591 63T514 8T373 -8Q258 -8 192 -7T60 0V690Q119 695 179 696T341 698Q437 698 491 683T569 628T593 518Q593 443 564 405T470 361V355Q548 348 582 303ZM414 537T397
551T331 566H244V415H336Q382 415 398 430T414 492Q414 537 397 551ZM376 124T394 131T420 156T428 209Q428 247 421 266T394 292T338 300H244V124H340Q376 124 394 131Z" />
<glyph unicode="C" glyph-name="C" horiz-adv-x="596" d="M416 702T462 697T559 677L545 539Q443 542 341 542Q299 542 277 525T245 466T236 345Q236 266 245 224T276 165T341 148Q420 148 467 149T559 156L574 19Q524 2 472 -5T341 -12Q229 -12 164 22T69 134T39
345Q39 478 68 555T163 667T341 702Q416 702 462 697Z" />
<glyph unicode="D" glyph-name="D" horiz-adv-x="691" d="M460 700T526 669T622 561T652 345Q652 206 623 130T527 22T343 -10Q198 -10 60 0V690Q228 700 343 700Q460 700 526 669ZM388 131T411 149T444 213T454 345Q454 432 445 477T412 541T343 560H248V132Q277
131 343 131Q388 131 411 149Z" />
<glyph unicode="E" glyph-name="E" horiz-adv-x="587" d="M545 143L554 8Q489 1 410 -1T212 -3Q141 -3 98 37T55 145V545Q55 612 98 652T212 693Q330 693 409 691T554 682L545 547H286Q243 547 243 504V420H508V291H243V186Q243 143 286 143H545Z" />
<glyph unicode="F" glyph-name="F" horiz-adv-x="565" d="M246 547T246 504V407H501V277H246V0H58V543Q58 611 102 652T217 693Q331 693 408 691T547 681L538 547H294Q246 547 246 504Z" />
<glyph unicode="G" glyph-name="G" horiz-adv-x="658" d="M613 397V0H475L458 70Q428 36 378 11T264 -14Q185 -14 136 22T63 138T39 346Q39 481 70 558T169 670T357 704Q428 704 481 698T587 677L572 541Q464 544 359 544Q309 544 284 529T247 471T236 344Q236
265 245 223T275 164T336 147Q384 147 433 164V397H613Z" />
<glyph unicode="H" glyph-name="H" horiz-adv-x="702" d="M642 690V0H454V298H248V0H61V690H248V435H454V690H642Z" />
<glyph unicode="I" glyph-name="I" horiz-adv-x="308" d="M247 0H61V690H247V0Z" />
<glyph unicode="J" glyph-name="J" horiz-adv-x="388" d="M330 135Q330 64 285 26T160 -13Q126 -13 81 -7T15 10L35 131H82Q114 131 129 141T144 174V690H330V135Z" />
<glyph unicode="K" glyph-name="K" horiz-adv-x="656" d="M288 295H240Q248 260 248 231V0H61V690H248V507Q248 466 240 421H287L445 690H647L480 418Q459 381 424 359V356Q440 347 458 329T488 291L658 0H450L288 295Z" />
<glyph unicode="L" glyph-name="L" horiz-adv-x="546" d="M246 193Q246 150 293 150H527L536 9Q471 1 399 -1T219 -3Q142 -3 100 38T58 149V690H246V193Z" />
<glyph unicode="M" glyph-name="M" horiz-adv-x="933" d="M858 690T861 623L886 0H714L692 547H676L592 161Q581 103 519 103H413Q351 103 339 161L254 547H238L220 0H48L72 623Q75 690 140 690H308Q369 690 381 631L446 325Q452 294 460 225H471L476 261Q481
301 486 326L549 631Q561 690 622 690H793Q858 690 861 623Z" />
<glyph unicode="N" glyph-name="N" horiz-adv-x="731" d="M671 66Q671 0 606 0H517Q490 0 475 12T444 55L280 351Q253 402 235 464H227Q235 402 235 346V0H60V624Q60 656 77 673T126 690H214Q241 690 255 678T287 635L445 350Q470 305 497 235H505Q498 307 498
356L497 690H671V66Z" />
<glyph unicode="O" glyph-name="O" horiz-adv-x="697" d="M466 704T532 673T628 564T658 345Q658 204 628 127T532 18T348 -14Q230 -14 164 17T69 126T39 345Q39 486 68 563T164 672T348 704Q466 704 532 673ZM303 560T279 542T246 478T236 345Q236 258 245 213T279
149T348 130Q393 130 417 148T450 212T460 345Q460 432 451 477T417 541T348 560Q303 560 279 542Z" />
<glyph unicode="P" glyph-name="P" horiz-adv-x="632" d="M444 700T502 680T584 610T609 469Q609 378 586 329T510 260T364 239Q313 239 248 246V0H60V690Q123 696 178 698T338 700Q444 700 502 680ZM369 376T387 384T413 411T421 469Q421 507 414 527T388 555T334
563H248V376H334Q369 376 387 384Z" />
<glyph unicode="Q" glyph-name="Q" horiz-adv-x="697" d="M466 704T532 673T628 564T658 345Q658 204 629 127T533 18T348 -14Q231 -14 165 17T69 126T39 345Q39 486 69 563T165 672T348 704Q466 704 532 673ZM303 560T280 542T246 478T236 345Q236 258 246 213T279
149T348 130Q393 130 417 148T450 212T460 345Q460 432 451 477T417 541T348 560Q303 560 280 542ZM361 -55T435 -71T609 -101L561 -259Q384 -211 252 -123L293 -30Q361 -55 435 -71Z" />
<glyph unicode="R" glyph-name="R" horiz-adv-x="661" d="M641 0H444L395 208Q388 238 374 249T330 260H245V0H60V690Q123 696 178 698T339 700Q439 700 498 681T585 617T614 492Q614 420 583 377T478 325V319Q565 305 584 213L641 0ZM371 397T390 404T417 428T425
480Q425 514 417 531T390 556T335 563H245V397H335Q371 397 390 404Z" />
<glyph unicode="S" glyph-name="S" horiz-adv-x="597" d="M450 703T545 672L533 549Q510 549 497 550Q383 552 303 552Q255 552 239 544T222 509Q222 486 236 474T288 448L415 399Q498 366 532 318T566 192Q566 113 541 69T458 6T296 -13Q164 -13 43 17L54 150L90
149Q294 145 295 145Q345 145 361 153T378 188Q378 212 367 223T323 246L185 301Q104 334 70 381T36 506Q36 585 62 627T146 686T305 703Q450 703 545 672Z" />
<glyph unicode="T" glyph-name="T" horiz-adv-x="613" d="M599 545H400V0H212V545H14V690H599V545Z" />
<glyph unicode="U" glyph-name="U" horiz-adv-x="694" d="M639 280Q639 171 612 108T523 15T357 -14Q245 -14 180 15T85 107T55 280V690H243V280Q243 220 252 188T284 143T347 130Q388 130 410 143T441 188T451 280V690H639V280Z" />
<glyph unicode="V" glyph-name="V" horiz-adv-x="655" d="M476 51Q471 28 453 14T411 0H244Q220 0 202 14T179 51L2 690H195L301 219Q309 181 315 141H340Q342 161 354 219L459 690H653L476 51Z" />
<glyph unicode="W" glyph-name="W" horiz-adv-x="989" d="M870 51Q866 28 848 14T805 0H638Q613 0 595 14T573 51L513 464Q507 510 504 559H486Q480 491 476 463L417 51Q414 28 396 14T352 0H184Q160 0 142 14T119 51L23 690H210L260 242Q265 192 266 133H284L300
242L358 634Q361 659 379 674T423 690H567Q592 690 610 675T631 634L690 241L694 214Q701 164 705 133H723Q724 177 730 240L779 690H967L870 51Z" />
<glyph unicode="X" glyph-name="X" horiz-adv-x="661" d="M332 300H329L191 0H2L177 353L16 690H203L328 410H333L457 690H645L484 353L659 0H470L332 300Z" />
<glyph unicode="Y" glyph-name="Y" horiz-adv-x="633" d="M411 221V0H223V219L-5 690H189L288 457Q301 427 311 364H323Q324 370 330 401T346 457L445 690H638L411 221Z" />
<glyph unicode="Z" glyph-name="Z" horiz-adv-x="595" d="M562 136V0H34V136L346 554H43V690H553V554L242 136H562Z" />
<glyph unicode="[" glyph-name="bracketleft" horiz-adv-x="355" d="M327 656H258Q249 656 244 651T238 636V-33Q238 -42 243 -47T258 -53H327V-165H158Q115 -165 92 -145T68 -75V678Q68 718 93 743T158 768H327V656Z" />
<glyph unicode="\" glyph-name="backslash" horiz-adv-x="571" d="M554 -76H410L17 690H161L554 -76Z" />
<glyph unicode="]" glyph-name="bracketright" horiz-adv-x="355" d="M237 768T262 743T287 678V-75Q287 -115 262 -140T197 -165H28V-53H97Q106 -53 112 -48T118 -33V636Q118 645 112 650T97 656H28V768H197Q237 768 262 743Z" />
<glyph unicode="^" glyph-name="asciicircum" horiz-adv-x="481" d="M451 409L381 371L246 532H238L100 371L30 409L176 641H308L451 409Z" />
<glyph unicode="_" glyph-name="underscore" horiz-adv-x="448" d="M448 -111H0V0H448V-111Z" />
<glyph unicode="`" glyph-name="grave" horiz-adv-x="374" d="M330 607L279 532L38 637L111 757L330 607Z" />
<glyph unicode="a" glyph-name="a" horiz-adv-x="580" d="M431 511T482 468T533 317V0H389L372 73Q342 36 298 12T195 -13Q122 -13 75 24T28 129V179Q28 238 70 272T187 306H352V318Q351 350 337 362T283 375Q186 375 70 368L54 486Q109 496 189 503T326 511Q431
511 482 468ZM206 115T255 115Q300 115 352 150V211H248Q206 210 206 172V155Q206 115 255 115Z" />
<glyph unicode="b" glyph-name="b" horiz-adv-x="606" d="M455 511T495 485T554 403T573 254Q573 130 519 59T316 -12Q252 -12 171 -2T50 28V700H232L233 553Q235 488 219 435Q254 469 297 490T387 511Q455 511 495 485ZM335 115T352 125T378 165T386 253Q386
302 380 326T359 361T313 371Q291 371 274 365T231 346L232 121Q265 115 302 115Q335 115 352 125Z" />
<glyph unicode="c" glyph-name="c" horiz-adv-x="518" d="M341 511T395 503T488 477L470 364L323 365Q284 365 263 355T232 321T223 249Q223 202 232 178T262 143T323 133Q410 133 479 141L496 26Q419 -12 290 -12Q194 -12 138 13T57 95T32 249Q32 346 57 403T139
485T292 511Q341 511 395 503Z" />
<glyph unicode="d" glyph-name="d" horiz-adv-x="608" d="M557 700V0H413L398 77Q370 36 324 12T212 -12Q119 -12 77 55T34 254Q34 352 55 408T117 488T224 511Q321 511 379 467Q375 535 375 574V700H557ZM315 135T333 141T375 160V370Q349 378 332 382T292 386Q264
386 250 377T228 340T221 255Q221 204 228 179T249 144T288 135Q315 135 333 141Z" />
<glyph unicode="e" glyph-name="e" horiz-adv-x="576" d="M415 129T519 141L535 30Q452 -12 304 -12Q157 -12 95 50T32 246Q32 345 59 402T144 485T301 511Q433 511 491 467T549 332Q549 264 509 233T375 201H226Q232 160 253 145T324 129Q415 129 519 141ZM271
388T255 381T232 354T223 295H324Q355 295 364 304T374 339Q374 368 358 378T300 388Q271 388 255 381Z" />
<glyph unicode="f" glyph-name="f" horiz-adv-x="417" d="M305 597T293 585T281 539V497H407V383H281V0H98V383H13V492L98 497V564Q98 722 272 722Q309 722 361 719T444 710L427 597H337Q305 597 293 585Z" />
<glyph unicode="g" glyph-name="g" horiz-adv-x="593" d="M576 425L519 417Q528 389 528 353Q528 295 505 261T428 211T283 195Q235 195 203 199Q197 190 197 179Q197 167 205 158T232 147L413 131Q494 124 529 88T565 -21Q565 -89 538 -124T452 -172T289 -186Q178
-186 119 -172T38 -128T15 -41Q15 -4 32 20T92 65Q66 91 66 131Q66 159 79 182T115 218Q73 236 55 268T36 352Q36 410 60 444T138 495T284 511Q372 511 422 497H585L576 425ZM327 300T343 311T359 353Q359 384 343 394T283 405Q238 405 222 395T205 353Q205 322
221 311T283 300Q327 300 343 311ZM394 2T378 8T315 19L210 28Q197 18 192 9T186 -15Q186 -34 194 -43T223 -55T287 -58Q332 -58 354 -55T385 -44T394 -19Q394 2 378 8Z" />
<glyph unicode="h" glyph-name="h" horiz-adv-x="611" d="M490 511T526 476T563 372V0H381V315Q381 339 372 348T340 357Q316 357 292 351T233 331V0H51V700H233L234 541Q234 484 224 434Q272 472 322 491T419 511Q490 511 526 476Z" />
<glyph unicode="i" glyph-name="i" horiz-adv-x="291" d="M237 721T237 667V615Q237 562 185 562H106Q53 562 53 615V667Q53 721 106 721H185Q237 721 237 667ZM236 0H55V497H236V0Z" />
<glyph unicode="j" glyph-name="j" horiz-adv-x="292" d="M236 728T236 675V622Q236 569 184 569H105Q53 569 53 622V675Q53 728 105 728H184Q236 728 236 675ZM237 42Q237 -33 198 -97T91 -193L-9 -113Q27 -76 41 -40T56 42V497H237V42Z" />
<glyph unicode="k" glyph-name="k" horiz-adv-x="585" d="M262 222H226Q233 177 233 148V0H51V700H233V422Q233 371 226 328H263L370 497H570L455 330Q445 314 430 299T403 276V272Q413 267 429 249T455 212L588 0H387L262 222Z" />
<glyph unicode="l" glyph-name="l" horiz-adv-x="344" d="M233 173Q233 151 246 141T286 130H322L343 10Q324 -1 283 -7T209 -13Q136 -13 94 23T52 125V700H233V173Z" />
<glyph unicode="m" glyph-name="m" horiz-adv-x="882" d="M763 511T798 476T834 372V0H653V315Q653 338 644 347T612 357Q595 357 578 352T530 331V0H355V315Q355 338 345 347T313 357Q295 357 279 352T232 333V0H51V497H194L209 424Q255 469 297 490T392 511Q493
511 520 434Q562 474 603 492T693 511Q763 511 798 476Z" />
<glyph unicode="n" glyph-name="n" horiz-adv-x="611" d="M490 511T526 476T563 372V0H381V315Q381 339 372 348T340 357Q317 357 293 351T233 331V0H51V497H196L211 424Q262 467 315 489T419 511Q490 511 526 476Z" />
<glyph unicode="o" glyph-name="o" horiz-adv-x="600" d="M399 511T457 485T541 402T568 248Q568 151 542 95T458 14T300 -12Q201 -12 143 13T59 95T32 248Q32 345 58 402T143 485T300 511Q399 511 457 485ZM268 383T252 372T230 333T223 248Q223 192 229 164T252
126T300 115Q332 115 348 125T370 164T377 248Q377 304 371 332T348 372T300 383Q268 383 252 372Z" />
<glyph unicode="p" glyph-name="p" horiz-adv-x="611" d="M493 509T535 442T577 243Q577 144 556 89T494 10T388 -13Q288 -13 229 32Q234 -30 233 -76V-185H51V497H197L212 427Q239 462 291 485T401 509Q493 509 535 442ZM347 111T361 120T383 158T390 242Q390
298 384 326T364 364T325 374Q299 374 280 367T233 343V128Q260 119 277 115T319 111Q347 111 361 120Z" />
<glyph unicode="q" glyph-name="q" horiz-adv-x="606" d="M354 511T435 501T556 470V-185H375L374 -48Q374 20 388 70Q353 35 309 12T216 -12Q119 -12 76 52T33 245Q33 331 54 388T131 478T290 511Q354 511 435 501ZM220 201T226 178T247 145T290 135Q313 135
331 140T375 157V377Q333 384 302 384Q269 384 252 374T228 333T220 244Q220 201 226 178Z" />
<glyph unicode="r" glyph-name="r" horiz-adv-x="440" d="M434 511L418 344H370Q320 344 233 323V0H51V497H193L209 424Q307 511 407 511H434Z" />
<glyph unicode="s" glyph-name="s" horiz-adv-x="541" d="M312 510T381 505T495 490L484 380Q412 381 273 381Q241 381 229 380T211 375T206 360Q206 348 214 344T247 332L267 327L387 295Q455 276 485 244T515 148Q515 86 492 52T418 3T280 -11Q153 -11 38 8L49
118L224 117Q276 117 299 119T330 126T339 143Q339 154 331 158T297 171L272 178L156 210Q83 231 57 267T30 367Q30 441 80 476T252 511Q312 510 381 505Z" />
<glyph unicode="t" glyph-name="t" horiz-adv-x="426" d="M282 383V173Q282 149 292 140T329 130H387L407 10Q380 -1 334 -7T251 -13Q180 -13 140 24T100 128L99 383H14V492L99 496V631H282V497H410V383H282Z" />
<glyph unicode="u" glyph-name="u" horiz-adv-x="604" d="M553 497V0H409L394 71Q343 28 294 7T192 -14Q121 -14 85 21T48 125V497H230V182Q230 159 240 149T274 139Q295 139 316 144T370 164V497H553Z" />
<glyph unicode="v" glyph-name="v" horiz-adv-x="584" d="M428 43Q421 23 406 12T370 0H214Q193 0 178 11T156 43L2 497H194L268 206Q274 178 285 115H298L316 206L390 497H582L428 43Z" />
<glyph unicode="w" glyph-name="w" horiz-adv-x="863" d="M741 47Q736 25 720 13T680 0H547Q523 0 505 15T484 54L446 305Q442 330 439 366Q439 373 437 391H425Q420 342 415 305L377 54Q374 30 356 15T314 0H183Q160 0 144 12T122 47L12 497H193L243 198Q251
139 253 113H265Q268 137 276 198L314 444Q317 467 334 482T376 497H486Q510 497 527 482T548 443L585 198Q586 187 590 167L597 113H609Q615 169 620 198L669 497H851L741 47Z" />
<glyph unicode="x" glyph-name="x" horiz-adv-x="587" d="M402 0L294 200L185 0H3L151 254L14 497H196L294 310L391 497H573L436 254L584 0H402Z" />
<glyph unicode="y" glyph-name="y" horiz-adv-x="584" d="M581 497L415 5Q387 -81 326 -142T165 -204Q142 -204 110 -199L97 -98Q156 -84 191 -62T245 0H213Q192 0 177 11T155 43L2 497H195L269 201Q275 171 283 116H294Q301 142 314 201L388 497H581Z" />
<glyph unicode="z" glyph-name="z" horiz-adv-x="534" d="M500 122V0H34V122L284 375H39V497H494V375L244 122H500Z" />
<glyph unicode="{" glyph-name="braceleft" horiz-adv-x="350" d="M318 657Q276 657 263 649T249 608V471Q250 404 227 371T139 328Q203 311 227 278T253 189V-8Q253 -29 259 -39T278 -51T322 -54V-165Q292 -170 255 -170Q166 -170 123 -131T80 -22V208Q80 230
75 240T61 256T28 271V385Q52 393 60 397T72 413T76 452V625Q76 694 119 733T251 773Q288 773 318 768V657Z" />
<glyph unicode="|" glyph-name="bar" horiz-adv-x="269" d="M198 -169H71V781H198V-169Z" />
<glyph unicode="}" glyph-name="braceright" horiz-adv-x="350" d="M63 773T100 773Q189 773 232 734T275 625V452Q275 425 278 414T290 398T323 385V271Q299 261 290 256T276 241T271 208V-22Q271 -91 228 -130T96 -170Q59 -170 29 -165V-54Q59 -54 72 -52T92
-39T98 -8V189Q99 245 123 278T212 328Q148 337 124 370T102 471V608Q102 640 89 648T33 657V768Q63 773 100 773Z" />
<glyph unicode="~" glyph-name="asciitilde" horiz-adv-x="506" d="M155 370T188 363T279 340Q324 327 343 324Q348 323 356 323Q369 323 372 332T376 365H454Q458 342 458 318Q458 264 435 236T375 207Q352 207 320 214T228 237Q215 240 194 246T162 253Q158
254 150 254Q137 254 134 246T131 211H53Q49 235 49 259Q49 314 73 342T134 370Q155 370 188 363Z" />
<glyph unicode="&#xa0;" glyph-name="uni00A0" horiz-adv-x="213" />
<glyph unicode="&#xa1;" glyph-name="exclamdown" horiz-adv-x="299" d="M206 514T219 501T233 451V407Q233 371 220 358T171 344H129Q94 344 81 357T67 407V451Q67 487 80 500T129 514H171Q206 514 219 501ZM240 69V-180H59V69L78 291H221L240 69Z" />
<glyph unicode="&#xa2;" glyph-name="cent" horiz-adv-x="532" d="M435 94T335 87L325 0H190L201 93Q109 109 70 169T31 348Q31 440 54 495T128 578T265 608L274 690H410L399 601Q456 591 491 575L472 468Q413 470 324 470Q279 470 255 460T221 424T211 348Q211
297 221 271T254 235T324 224Q412 224 482 232L498 124Q435 94 335 87Z" />
<glyph unicode="&#xa3;" glyph-name="sterling" horiz-adv-x="595" d="M561 147V0H44V147Q87 167 104 197T121 269Q121 286 120 295L118 318H42L40 409H111L103 512Q102 521 102 539Q102 603 125 639T195 689T318 703Q415 703 539 693L530 556Q491 557 348 557Q312
557 298 545T287 504L296 409H474L470 318H305L307 295Q308 288 308 274Q308 238 299 214T274 175T233 138Q251 144 269 145T315 147H561Z" />
<glyph unicode="&#xa4;" glyph-name="currency" horiz-adv-x="579" d="M495 296T467 248L538 178L463 104L393 174Q345 146 289 146Q235 146 186 173L118 105L38 185L108 254Q83 299 83 352Q83 408 111 456L43 524L118 598L186 530Q233 558 289 558Q345 558 395
529L464 598L538 524L468 454Q495 406 495 352Q495 296 467 248ZM330 249T360 279T391 353Q391 396 361 426T289 457Q248 457 218 427T187 353Q187 310 217 280T289 249Q330 249 360 279Z" />
<glyph unicode="&#xa5;" glyph-name="yen" horiz-adv-x="686" d="M507 370H591V267H98L97 370H179L21 690H214L314 469Q325 446 330 416T338 377H350Q352 387 358 417T373 470L472 690H665L507 370ZM97 237H591V135H438L437 0H250V135H98L97 237Z" />
<glyph unicode="&#xa6;" glyph-name="brokenbar" horiz-adv-x="271" d="M199 381H72V781H199V381ZM199 -169H72V231H199V-169Z" />
<glyph unicode="&#xa7;" glyph-name="section" horiz-adv-x="559" d="M415 701T509 692L496 566Q465 568 410 568H333Q278 568 258 563T235 540Q232 522 244 510T282 485L407 423Q466 394 492 358T519 275Q519 235 498 172H372Q373 211 368 231T346 266T293 301L142
382Q111 399 91 415T56 463T40 546Q40 608 66 642T143 690T277 704Q415 701 509 692ZM186 305T192 284T215 249T267 214L418 133Q449 116 469 100T504 52T520 -31Q520 -93 494 -127T416 -175T283 -189Q236 -189 168 -186T51 -177L64 -51Q116 -54 227 -54Q281 -54
302 -49T325 -24Q328 -6 316 5T278 29L153 92Q94 121 68 156T41 239Q41 280 62 343H187Q186 305 192 284Z" />
<glyph unicode="&#xa8;" glyph-name="dieresis" horiz-adv-x="430" d="M188 714T188 678V618Q188 581 152 581H93Q57 581 57 618V678Q57 714 93 714H152Q188 714 188 678ZM374 714T374 678V618Q374 581 338 581H279Q242 581 242 618V678Q242 714 279 714H338Q374
714 374 678Z" />
<glyph unicode="&#xa9;" glyph-name="copyright" horiz-adv-x="795" d="M498 704T581 658T712 530T760 345Q760 242 712 161T581 33T397 -14Q296 -14 213 32T82 161T34 345Q34 447 82 529T213 657T397 704Q498 704 581 658ZM323 618T261 583T161 485T124 345Q124
268 161 206T260 108T397 72Q472 72 534 107T634 205T671 345Q671 422 634 484T535 582T397 618Q323 618 261 583ZM448 547T476 544T540 532L529 436L401 437Q377 437 366 430T350 404T345 346Q345 307 349 289T365 263T401 256Q497 256 539 259L549 164Q517 154
484 150T402 145Q329 145 287 164T226 227T207 346Q207 421 226 464T287 527T402 547Q448 547 476 544Z" />
<glyph unicode="&#xaa;" glyph-name="ordfeminine" horiz-adv-x="435" d="M317 619T352 590T387 486V276H282L270 325Q224 267 150 267Q101 267 70 291T38 361V395Q38 435 67 458T146 481H256V487Q256 505 247 513T215 521Q141 521 68 517L56 603Q94 609 150 614T245
619Q317 619 352 590ZM165 359T197 359Q224 359 256 379V420L195 414Q165 411 165 391V382Q165 359 197 359Z" />
<glyph unicode="&#xab;" glyph-name="guillemotleft" horiz-adv-x="537" d="M503 407L409 251L504 89L408 29L250 232V270L408 468L503 407ZM280 407L186 251L281 89L185 29L27 232V270L185 468L280 407Z" />
<glyph unicode="&#xac;" glyph-name="logicalnot" horiz-adv-x="576" d="M521 369V137L386 136V243H49V369H521Z" />
<glyph unicode="&#xad;" glyph-name="uni00AD" horiz-adv-x="395" d="M344 201H50V311H344V201Z" />
<glyph unicode="&#xae;" glyph-name="registered" horiz-adv-x="507" d="M315 703T365 673T446 593T476 481Q476 420 446 369T366 288T254 258Q193 258 142 288T61 369T31 481Q31 542 61 592T142 673T254 703Q315 703 365 673ZM299 309T338 332T401 394T424 481Q424
528 401 567T339 630T254 653Q208 653 169 630T106 568T83 481Q83 434 106 395T168 332T254 309Q299 309 338 332ZM344 476T352 443L372 376H293L278 440Q274 449 270 452T255 455H229V376H155V595Q187 598 259 598Q315 598 339 584T363 532Q363 485 312 480V478Q344
476 352 443ZM275 502T281 506T287 524Q287 537 281 541T257 545H229V501H257Q275 502 281 506Z" />
<glyph unicode="&#xaf;" glyph-name="overscore" horiz-adv-x="400" d="M355 594H45V704H355V594Z" />
<glyph unicode="&#xb0;" glyph-name="degree" horiz-adv-x="334" d="M204 704T236 686T287 637T306 568Q306 530 287 499T237 449T167 431Q129 431 97 449T46 498T27 568Q27 605 46 636T97 686T167 704Q204 704 236 686ZM145 621T130 606T115 568Q115 545 130
529T167 513Q188 513 203 529T218 568Q218 591 203 606T167 621Q145 621 130 606Z" />
<glyph unicode="&#xb1;" glyph-name="plusminus" horiz-adv-x="565" d="M514 448V314H349V202H216V314H51V448H216V561H349V448H514ZM51 165H514V31H51V165Z" />
<glyph unicode="&#xb2;" glyph-name="uni00B2" horiz-adv-x="432" d="M266 781T303 772T360 739T379 668Q379 645 362 615T311 557L212 471Q243 478 272 478L390 475V360H43V430Q43 449 47 462T62 486L149 563Q218 624 228 649Q231 660 222 663T188 667L51 666L47
768Q117 781 202 781Q266 781 303 772Z" />
<glyph unicode="&#xb3;" glyph-name="uni00B3" horiz-adv-x="412" d="M267 783T301 774T351 745T366 686Q366 636 350 612T287 581V579Q339 572 358 548T378 472Q378 406 340 379T207 351Q129 351 38 363L42 462Q102 460 168 460Q197 460 211 462T230 472T235
495Q235 513 226 520T184 528L98 530V615L184 618Q214 618 222 624T231 648Q231 665 222 670T181 675H52L48 771Q127 783 205 783Q267 783 301 774Z" />
<glyph unicode="&#xb4;" glyph-name="acute" horiz-adv-x="374" d="M334 626L92 520L41 596L260 745L334 626Z" />
<glyph unicode="&#xb5;" glyph-name="uni00B5" horiz-adv-x="620" d="M611 12Q545 -12 481 -12Q432 -12 402 10T371 79V85Q352 44 315 17T231 -13V-65L209 -185H51V497H233V196Q233 162 242 152T273 141Q297 141 318 160T354 217T368 306V497H549V149Q549 124
554 114T574 104H604L611 12Z" />
<glyph unicode="&#xb6;" glyph-name="paragraph" horiz-adv-x="613" d="M397 702T447 698T535 685V0H421V592Q387 594 372 594V-210H258V201Q133 212 79 270T24 450Q24 543 57 598T161 677T353 702Q397 702 447 698Z" />
<glyph unicode="&#xb7;" glyph-name="middot" horiz-adv-x="260" d="M188 343T201 330T215 280V236Q215 200 202 187T152 173H109Q73 173 60 186T46 236V280Q46 316 59 329T109 343H152Q188 343 201 330Z" />
<glyph unicode="&#xb8;" glyph-name="cedilla" horiz-adv-x="256" d="M140 -29T157 -29Q199 -29 218 -42T237 -92Q237 -165 189 -205T61 -245Q40 -245 19 -242L39 -170Q77 -170 100 -159T126 -116Q127 -108 123 -105T102 -102T59 -101L76 -35Q140 -29 157 -29Z" />
<glyph unicode="&#xb9;" glyph-name="uni00B9" horiz-adv-x="314" d="M261 360H123V609Q123 645 128 665L28 647L12 734L123 774H261V360Z" />
<glyph unicode="&#xba;" glyph-name="ordmasculine" horiz-adv-x="437" d="M287 619T327 602T385 547T403 442Q403 377 385 340T327 285T219 268Q150 268 110 285T52 339T34 442Q34 508 52 546T110 602T219 619Q287 619 327 602ZM199 527T190 521T176 496T171
442Q172 407 176 390T189 366T219 359Q238 359 247 365T261 389T265 442Q265 478 261 496T248 520T219 527Q199 527 190 521Z" />
<glyph unicode="&#xbb;" glyph-name="guillemotright" horiz-adv-x="537" d="M287 270V232L129 29L34 89L129 251L34 407L129 468L287 270ZM510 270V232L351 29L256 89L351 251L256 407L352 468L510 270Z" />
<glyph unicode="&#xbc;" glyph-name="onequarter" horiz-adv-x="924" d="M127 525Q127 557 133 581L38 563L23 650L127 690H266V276H127V525ZM674 690L274 0H162L562 690H674ZM896 92L850 80V0H722V80H547Q525 80 510 92T495 125Q495 134 500 147L607 414H731L640
184Q639 182 639 179Q639 171 652 171H722V269L744 332H850V171H896V92Z" />
<glyph unicode="&#xbd;" glyph-name="onehalf" horiz-adv-x="929" d="M266 276H127V525Q127 557 133 581L38 563L23 650L127 690H266V276ZM271 0H160L559 690H672L271 0ZM772 421T809 412T865 379T884 308Q884 285 867 255T817 197L721 111Q750 118 779 118L895
115L894 0H551V70Q551 89 555 102T571 126L655 203Q724 267 733 289Q737 300 728 303T694 307L559 306L555 408Q625 421 708 421Q772 421 809 412Z" />
<glyph unicode="&#xbe;" glyph-name="threequarters" horiz-adv-x="1002" d="M371 320T333 293T203 265Q131 265 36 276L40 375Q100 373 163 373Q191 373 204 375T223 385T228 408Q228 428 219 436T180 444L95 443V528L180 529Q208 529 216 536T224 561Q224 578
216 582T176 588Q129 589 50 589L46 684Q125 696 202 696Q262 696 296 687T344 658T359 599Q359 549 343 525T281 494V492Q332 485 351 461T371 385Q371 320 333 293ZM757 690L357 0H245L644 690H757ZM976 92L930 80V0H802V80H627Q604 80 590 92T575 124Q575 134
580 147L687 414H811L720 184Q719 182 719 179Q719 171 732 171H802V269L824 332H930V171H976V92Z" />
<glyph unicode="&#xbf;" glyph-name="questiondown" horiz-adv-x="522" d="M334 514T347 501T361 451V407Q361 371 348 358T298 344H257Q221 344 208 357T194 407V451Q194 487 207 500T257 514H298Q334 514 347 501ZM352 217T328 167T259 64Q237 37 228 23T216
-6L215 -15Q215 -35 232 -44T289 -53L452 -52Q465 -51 493 -51L498 -172Q477 -176 470 -177Q414 -189 370 -193T244 -198Q132 -198 78 -160T23 -43Q23 6 44 39T107 116Q150 159 174 197T205 290H348Q352 217 328 167Z" />
<glyph unicode="&#xc0;" glyph-name="Agrave" horiz-adv-x="668" d="M440 164H228L187 0H-5L184 641Q189 663 206 676T247 690H421Q444 690 461 677T485 641L673 0H481L440 164ZM406 300L361 477Q350 529 348 549H321Q314 511 307 477L262 300H406ZM425 809L374
734L133 839L206 959L425 809Z" />
<glyph unicode="&#xc1;" glyph-name="Aacute" horiz-adv-x="668" d="M440 164H228L187 0H-5L184 641Q189 663 206 676T247 690H421Q444 690 461 677T485 641L673 0H481L440 164ZM406 300L361 477Q350 529 348 549H321Q314 511 307 477L262 300H406ZM532 828L290
722L239 798L458 947L532 828Z" />
<glyph unicode="&#xc2;" glyph-name="Acircumflex" horiz-adv-x="668" d="M440 164H228L187 0H-5L184 641Q189 663 206 676T247 690H421Q444 690 461 677T485 641L673 0H481L440 164ZM406 300L361 477Q350 529 348 549H321Q314 511 307 477L262 300H406ZM536 782L491
719L340 813H332L179 719L133 788L271 920H402L536 782Z" />
<glyph unicode="&#xc3;" glyph-name="Atilde" horiz-adv-x="668" d="M440 164H228L187 0H-5L184 641Q189 663 206 676T247 690H421Q444 690 461 677T485 641L673 0H481L440 164ZM406 300L361 477Q350 529 348 549H321Q314 511 307 477L262 300H406ZM261 905T284
899T336 882Q378 866 400 862Q404 861 411 861Q426 861 429 869T433 902H509Q513 879 513 856Q513 802 489 773T426 746Q400 748 378 754T321 773Q284 788 260 792Q256 793 249 793Q235 793 232 784T228 751H152Q148 772 148 796Q148 852 173 880T235 907Q261 905
284 899Z" />
<glyph unicode="&#xc4;" glyph-name="Adieresis" horiz-adv-x="668" d="M440 164H228L187 0H-5L184 641Q189 663 206 676T247 690H421Q444 690 461 677T485 641L673 0H481L440 164ZM406 300L361 477Q350 529 348 549H321Q314 511 307 477L262 300H406ZM306 893T306
857V797Q306 760 270 760H211Q175 760 175 797V857Q175 893 211 893H270Q306 893 306 857ZM492 893T492 857V797Q492 760 456 760H397Q360 760 360 797V857Q360 893 397 893H456Q492 893 492 857Z" />
<glyph unicode="&#xc5;" glyph-name="Aring" horiz-adv-x="668" d="M440 164H228L187 0H-5L184 641Q189 663 206 676T247 690H421Q444 690 461 677T485 641L673 0H481L440 164ZM406 300L361 477Q350 529 348 549H321Q314 511 307 477L262 300H406ZM368 954T396
938T442 895T459 834Q459 783 423 748T335 713Q284 713 248 748T211 834Q211 867 228 894T273 938T335 954Q368 954 396 938ZM315 882T302 868T288 834Q288 813 301 800T335 786Q355 786 368 799T382 834Q382 854 369 868T335 882Q315 882 302 868Z" />
<glyph unicode="&#xc6;" glyph-name="AE" horiz-adv-x="944" d="M901 141L910 8Q842 1 767 -1T580 -3Q516 -3 479 38T441 145V174H256L177 0H-15L248 545Q274 601 309 632T406 677T573 692Q682 692 756 690T910 682L901 549H661Q641 549 629 537T616 505V417H866V295H616V184Q616
141 661 141H901ZM441 307V512Q441 528 446 545T460 576H447Q437 565 416 528L316 307H441Z" />
<glyph unicode="&#xc7;" glyph-name="Ccedilla" horiz-adv-x="596" d="M416 702T462 697T559 677L545 539Q443 542 341 542Q299 542 277 525T245 466T236 345Q236 266 245 224T276 165T341 148Q420 148 467 149T559 156L574 19Q524 2 472 -5T341 -12Q229 -12 164
22T69 134T39 345Q39 478 68 555T163 667T341 702Q416 702 462 697ZM325 -55T342 -55Q384 -55 403 -68T422 -118Q422 -191 374 -231T246 -271Q225 -271 204 -268L224 -196Q262 -196 285 -185T311 -142Q312 -134 308 -131T287 -128T244 -127L261 -61Q325 -55 342
-55Z" />
<glyph unicode="&#xc8;" glyph-name="Egrave" horiz-adv-x="587" d="M545 143L554 8Q489 1 410 -1T212 -3Q141 -3 98 37T55 145V545Q55 612 98 652T212 693Q330 693 409 691T554 682L545 547H286Q243 547 243 504V420H508V291H243V186Q243 143 286 143H545ZM409
814L358 739L117 844L190 964L409 814Z" />
<glyph unicode="&#xc9;" glyph-name="Eacute" horiz-adv-x="587" d="M545 143L554 8Q489 1 410 -1T212 -3Q141 -3 98 37T55 145V545Q55 612 98 652T212 693Q330 693 409 691T554 682L545 547H286Q243 547 243 504V420H508V291H243V186Q243 143 286 143H545ZM516
833L274 727L223 803L442 952L516 833Z" />
<glyph unicode="&#xca;" glyph-name="Ecircumflex" horiz-adv-x="587" d="M545 143L554 8Q489 1 410 -1T212 -3Q141 -3 98 37T55 145V545Q55 612 98 652T212 693Q330 693 409 691T554 682L545 547H286Q243 547 243 504V420H508V291H243V186Q243 143 286 143H545ZM520
787L475 724L324 818H316L163 724L117 793L255 925H386L520 787Z" />
<glyph unicode="&#xcb;" glyph-name="Edieresis" horiz-adv-x="587" d="M545 143L554 8Q489 1 410 -1T212 -3Q141 -3 98 37T55 145V545Q55 612 98 652T212 693Q330 693 409 691T554 682L545 547H286Q243 547 243 504V420H508V291H243V186Q243 143 286 143H545ZM290
898T290 862V802Q290 765 254 765H195Q159 765 159 802V862Q159 898 195 898H254Q290 898 290 862ZM476 898T476 862V802Q476 765 440 765H381Q344 765 344 802V862Q344 898 381 898H440Q476 898 476 862Z" />
<glyph unicode="&#xcc;" glyph-name="Igrave" horiz-adv-x="308" d="M247 0H61V690H247V0ZM244 811L193 736L-48 841L25 961L244 811Z" />
<glyph unicode="&#xcd;" glyph-name="Iacute" horiz-adv-x="308" d="M247 0H61V690H247V0ZM351 830L109 724L58 800L277 949L351 830Z" />
<glyph unicode="&#xce;" glyph-name="Icircumflex" horiz-adv-x="308" d="M247 0H61V690H247V0ZM355 784L310 721L159 815H151L-2 721L-48 790L90 922H221L355 784Z" />
<glyph unicode="&#xcf;" glyph-name="Idieresis" horiz-adv-x="308" d="M247 0H61V690H247V0ZM125 895T125 859V799Q125 762 89 762H30Q-6 762 -6 799V859Q-6 895 30 895H89Q125 895 125 859ZM311 895T311 859V799Q311 762 275 762H216Q179 762 179 799V859Q179
895 216 895H275Q311 895 311 859Z" />
<glyph unicode="&#xd0;" glyph-name="Eth" horiz-adv-x="693" d="M462 700T528 669T624 561T654 345Q654 206 624 130T528 22T345 -10Q201 -10 61 0V313H11V405H61V690Q231 700 345 700Q462 700 528 669ZM389 131T412 149T446 213T456 345Q456 432 446 477T413
541T345 560H249V405H359V313H249V132Q278 131 345 131Q389 131 412 149Z" />
<glyph unicode="&#xd1;" glyph-name="Ntilde" horiz-adv-x="731" d="M671 66Q671 0 606 0H517Q490 0 475 12T444 55L280 351Q253 402 235 464H227Q235 402 235 346V0H60V624Q60 656 77 673T126 690H214Q241 690 255 678T287 635L445 350Q470 305 497 235H505Q498
307 498 356L497 690H671V66ZM303 908T326 902T378 885Q420 869 442 865Q446 864 453 864Q468 864 471 872T475 905H551Q555 882 555 859Q555 805 531 776T468 749Q442 751 420 757T363 776Q326 791 302 795Q298 796 291 796Q277 796 274 787T270 754H194Q190 775
190 799Q190 855 215 883T277 910Q303 908 326 902Z" />
<glyph unicode="&#xd2;" glyph-name="Ograve" horiz-adv-x="697" d="M466 704T532 673T628 564T658 345Q658 204 628 127T532 18T348 -14Q230 -14 164 17T69 126T39 345Q39 486 68 563T164 672T348 704Q466 704 532 673ZM303 560T279 542T246 478T236 345Q236
258 245 213T279 149T348 130Q393 130 417 148T450 212T460 345Q460 432 451 477T417 541T348 560Q303 560 279 542ZM438 811L387 736L146 841L219 961L438 811Z" />
<glyph unicode="&#xd3;" glyph-name="Oacute" horiz-adv-x="697" d="M466 704T532 673T628 564T658 345Q658 204 628 127T532 18T348 -14Q230 -14 164 17T69 126T39 345Q39 486 68 563T164 672T348 704Q466 704 532 673ZM303 560T279 542T246 478T236 345Q236
258 245 213T279 149T348 130Q393 130 417 148T450 212T460 345Q460 432 451 477T417 541T348 560Q303 560 279 542ZM545 830L303 724L252 800L471 949L545 830Z" />
<glyph unicode="&#xd4;" glyph-name="Ocircumflex" horiz-adv-x="697" d="M466 704T532 673T628 564T658 345Q658 204 628 127T532 18T348 -14Q230 -14 164 17T69 126T39 345Q39 486 68 563T164 672T348 704Q466 704 532 673ZM303 560T279 542T246 478T236 345Q236
258 245 213T279 149T348 130Q393 130 417 148T450 212T460 345Q460 432 451 477T417 541T348 560Q303 560 279 542ZM548 784L503 721L352 815H344L191 721L145 790L283 922H414L548 784Z" />
<glyph unicode="&#xd5;" glyph-name="Otilde" horiz-adv-x="697" d="M466 704T532 673T628 564T658 345Q658 204 628 127T532 18T348 -14Q230 -14 164 17T69 126T39 345Q39 486 68 563T164 672T348 704Q466 704 532 673ZM303 560T279 542T246 478T236 345Q236
258 245 213T279 149T348 130Q393 130 417 148T450 212T460 345Q460 432 451 477T417 541T348 560Q303 560 279 542ZM274 908T297 902T349 885Q391 869 413 865Q417 864 424 864Q439 864 442 872T446 905H522Q526 882 526 859Q526 805 502 776T439 749Q413 751
391 757T334 776Q297 791 273 795Q269 796 262 796Q248 796 245 787T241 754H165Q161 775 161 799Q161 855 186 883T248 910Q274 908 297 902Z" />
<glyph unicode="&#xd6;" glyph-name="Odieresis" horiz-adv-x="697" d="M466 704T532 673T628 564T658 345Q658 204 628 127T532 18T348 -14Q230 -14 164 17T69 126T39 345Q39 486 68 563T164 672T348 704Q466 704 532 673ZM303 560T279 542T246 478T236 345Q236
258 245 213T279 149T348 130Q393 130 417 148T450 212T460 345Q460 432 451 477T417 541T348 560Q303 560 279 542ZM319 895T319 859V799Q319 762 283 762H224Q188 762 188 799V859Q188 895 224 895H283Q319 895 319 859ZM505 895T505 859V799Q505 762 469 762H410Q373
762 373 799V859Q373 895 410 895H469Q505 895 505 859Z" />
<glyph unicode="&#xd7;" glyph-name="multiply" horiz-adv-x="500" d="M350 292L478 178L393 78L251 204L109 78L25 178L153 292L25 406L109 507L251 380L393 507L478 406L350 292Z" />
<glyph unicode="&#xd8;" glyph-name="Oslash" horiz-adv-x="697" d="M599 638T628 561T658 345Q658 204 628 127T532 18T348 -14Q271 -14 218 -1L187 -68L130 -42L159 20Q95 54 67 131T39 345Q39 486 68 563T164 672T348 704Q426 704 473 692L503 756L560 730L533
672Q599 638 628 561ZM236 252T247 208L406 549Q385 560 348 560Q303 560 279 542T246 478T236 345Q236 252 247 208ZM393 130T417 148T450 212T460 345Q460 446 447 489L286 144Q308 130 348 130Q393 130 417 148Z" />
<glyph unicode="&#xd9;" glyph-name="Ugrave" horiz-adv-x="694" d="M639 280Q639 171 612 108T523 15T357 -14Q245 -14 180 15T85 107T55 280V690H243V280Q243 220 252 188T284 143T347 130Q388 130 410 143T441 188T451 280V690H639V280ZM439 811L388 736L147
841L220 961L439 811Z" />
<glyph unicode="&#xda;" glyph-name="Uacute" horiz-adv-x="694" d="M639 280Q639 171 612 108T523 15T357 -14Q245 -14 180 15T85 107T55 280V690H243V280Q243 220 252 188T284 143T347 130Q388 130 410 143T441 188T451 280V690H639V280ZM545 830L303 724L252
800L471 949L545 830Z" />
<glyph unicode="&#xdb;" glyph-name="Ucircumflex" horiz-adv-x="694" d="M639 280Q639 171 612 108T523 15T357 -14Q245 -14 180 15T85 107T55 280V690H243V280Q243 220 252 188T284 143T347 130Q388 130 410 143T441 188T451 280V690H639V280ZM549 784L504 721L353
815H345L192 721L146 790L284 922H415L549 784Z" />
<glyph unicode="&#xdc;" glyph-name="Udieresis" horiz-adv-x="694" d="M639 280Q639 171 612 108T523 15T357 -14Q245 -14 180 15T85 107T55 280V690H243V280Q243 220 252 188T284 143T347 130Q388 130 410 143T441 188T451 280V690H639V280ZM320 895T320 859V799Q320
762 284 762H225Q189 762 189 799V859Q189 895 225 895H284Q320 895 320 859ZM506 895T506 859V799Q506 762 470 762H411Q374 762 374 799V859Q374 895 411 895H470Q506 895 506 859Z" />
<glyph unicode="&#xdd;" glyph-name="Yacute" horiz-adv-x="633" d="M411 221V0H223V219L-5 690H189L288 457Q301 427 311 364H323Q324 370 330 401T346 457L445 690H638L411 221ZM514 826L272 720L221 796L440 945L514 826Z" />
<glyph unicode="&#xde;" glyph-name="Thorn" horiz-adv-x="623" d="M438 576T494 556T575 486T599 344Q599 253 576 204T502 135T359 114Q302 114 249 120V0H61V690H249V576H334Q438 576 494 556ZM362 251T379 259T404 286T411 344Q411 383 404 403T380 431T329
439H249V251H329Q362 251 379 259Z" />
<glyph unicode="&#xdf;" glyph-name="germandbls" horiz-adv-x="723" d="M661 246T678 229T702 191T710 137Q710 59 666 24T510 -11Q448 -11 335 0L347 115Q385 114 467 114Q504 114 515 118T527 144Q527 159 514 172T470 209Q458 217 452 222L404 251Q368 277
350 304T332 369Q332 396 343 414T380 459Q398 477 407 488Q431 517 439 532T447 566Q447 584 441 593T418 607T365 612Q328 612 310 606T285 585T278 539V0H96V383H13V493L96 497V561Q96 629 123 667T207 721T362 737Q463 737 517 721T592 671T613 577Q613 544
603 520T558 459Q526 427 515 413T503 381Q503 367 513 356T540 334T564 316L627 272Q661 246 678 229Z" />
<glyph unicode="&#xe0;" glyph-name="agrave" horiz-adv-x="580" d="M431 511T482 468T533 317V0H389L372 73Q342 36 298 12T195 -13Q122 -13 75 24T28 129V179Q28 238 70 272T187 306H352V318Q351 350 337 362T283 375Q186 375 70 368L54 486Q109 496 189 503T326
511Q431 511 482 468ZM206 115T255 115Q300 115 352 150V211H248Q206 210 206 172V155Q206 115 255 115ZM386 639L335 564L94 669L167 789L386 639Z" />
<glyph unicode="&#xe1;" glyph-name="aacute" horiz-adv-x="580" d="M431 511T482 468T533 317V0H389L372 73Q342 36 298 12T195 -13Q122 -13 75 24T28 129V179Q28 238 70 272T187 306H352V318Q351 350 337 362T283 375Q186 375 70 368L54 486Q109 496 189 503T326
511Q431 511 482 468ZM206 115T255 115Q300 115 352 150V211H248Q206 210 206 172V155Q206 115 255 115ZM492 658L250 552L199 628L418 777L492 658Z" />
<glyph unicode="&#xe2;" glyph-name="acircumflex" horiz-adv-x="580" d="M431 511T482 468T533 317V0H389L372 73Q342 36 298 12T195 -13Q122 -13 75 24T28 129V179Q28 238 70 272T187 306H352V318Q351 350 337 362T283 375Q186 375 70 368L54 486Q109 496 189
503T326 511Q431 511 482 468ZM206 115T255 115Q300 115 352 150V211H248Q206 210 206 172V155Q206 115 255 115ZM496 612L451 549L300 643H292L139 549L93 618L231 750H362L496 612Z" />
<glyph unicode="&#xe3;" glyph-name="atilde" horiz-adv-x="580" d="M431 511T482 468T533 317V0H389L372 73Q342 36 298 12T195 -13Q122 -13 75 24T28 129V179Q28 238 70 272T187 306H352V318Q351 350 337 362T283 375Q186 375 70 368L54 486Q109 496 189 503T326
511Q431 511 482 468ZM206 115T255 115Q300 115 352 150V211H248Q206 210 206 172V155Q206 115 255 115ZM222 735T245 729T297 712Q339 696 361 692Q365 691 372 691Q387 691 390 699T394 732H470Q474 709 474 686Q474 632 450 603T387 576Q361 578 339 584T282
603Q245 618 221 622Q217 623 210 623Q196 623 193 614T189 581H113Q109 602 109 626Q109 682 134 710T196 737Q222 735 245 729Z" />
<glyph unicode="&#xe4;" glyph-name="adieresis" horiz-adv-x="580" d="M431 511T482 468T533 317V0H389L372 73Q342 36 298 12T195 -13Q122 -13 75 24T28 129V179Q28 238 70 272T187 306H352V318Q351 350 337 362T283 375Q186 375 70 368L54 486Q109 496 189
503T326 511Q431 511 482 468ZM206 115T255 115Q300 115 352 150V211H248Q206 210 206 172V155Q206 115 255 115ZM267 723T267 687V627Q267 590 231 590H172Q136 590 136 627V687Q136 723 172 723H231Q267 723 267 687ZM453 723T453 687V627Q453 590 417 590H358Q321
590 321 627V687Q321 723 358 723H417Q453 723 453 687Z" />
<glyph unicode="&#xe5;" glyph-name="aring" horiz-adv-x="580" d="M431 511T482 468T533 317V0H389L372 73Q342 36 298 12T195 -13Q122 -13 75 24T28 129V179Q28 238 70 272T187 306H352V318Q351 350 337 362T283 375Q186 375 70 368L54 486Q109 496 189 503T326
511Q431 511 482 468ZM206 115T255 115Q300 115 352 150V211H248Q206 210 206 172V155Q206 115 255 115ZM329 784T357 768T403 725T420 664Q420 613 384 578T296 543Q245 543 209 578T172 664Q172 697 189 724T234 768T296 784Q329 784 357 768ZM276 712T263 698T249
664Q249 643 262 630T296 616Q316 616 329 629T343 664Q343 684 330 698T296 712Q276 712 263 698Z" />
<glyph unicode="&#xe6;" glyph-name="ae" horiz-adv-x="881" d="M722 129T823 141L840 30Q757 -12 612 -12Q524 -12 468 10T381 80Q351 41 305 14T192 -13Q121 -13 75 24T28 129V179Q28 237 69 270T184 304H344V318Q344 350 330 362T278 375Q182 375 69 368L53
486Q106 496 186 503T321 511Q404 511 452 485Q510 511 609 511Q739 511 796 468T853 335Q854 265 815 233T680 201H531Q538 160 560 145T633 129Q722 129 823 141ZM578 388T562 381T538 354T528 295H629Q660 295 669 304T678 339Q678 369 664 378T609 388Q578
388 562 381ZM274 115T300 125T352 153Q345 183 344 210L247 211Q206 210 206 172V155Q206 115 252 115Q274 115 300 125Z" />
<glyph unicode="&#xe7;" glyph-name="ccedilla" horiz-adv-x="518" d="M341 511T395 503T488 477L470 364L323 365Q284 365 263 355T232 321T223 249Q223 202 232 178T262 143T323 133Q410 133 479 141L496 26Q419 -12 290 -12Q194 -12 138 13T57 95T32 249Q32
346 57 403T139 485T292 511Q341 511 395 503ZM278 -45T295 -45Q337 -45 356 -58T375 -108Q375 -181 327 -221T199 -261Q178 -261 157 -258L177 -186Q215 -186 238 -175T264 -132Q265 -124 261 -121T240 -118T197 -117L214 -51Q278 -45 295 -45Z" />
<glyph unicode="&#xe8;" glyph-name="egrave" horiz-adv-x="576" d="M415 129T519 141L535 30Q452 -12 304 -12Q157 -12 95 50T32 246Q32 345 59 402T144 485T301 511Q433 511 491 467T549 332Q549 264 509 233T375 201H226Q232 160 253 145T324 129Q415 129 519
141ZM271 388T255 381T232 354T223 295H324Q355 295 364 304T374 339Q374 368 358 378T300 388Q271 388 255 381ZM394 633L343 558L102 663L175 783L394 633Z" />
<glyph unicode="&#xe9;" glyph-name="eacute" horiz-adv-x="576" d="M415 129T519 141L535 30Q452 -12 304 -12Q157 -12 95 50T32 246Q32 345 59 402T144 485T301 511Q433 511 491 467T549 332Q549 264 509 233T375 201H226Q232 160 253 145T324 129Q415 129 519
141ZM271 388T255 381T232 354T223 295H324Q355 295 364 304T374 339Q374 368 358 378T300 388Q271 388 255 381ZM501 652L259 546L208 622L427 771L501 652Z" />
<glyph unicode="&#xea;" glyph-name="ecircumflex" horiz-adv-x="576" d="M415 129T519 141L535 30Q452 -12 304 -12Q157 -12 95 50T32 246Q32 345 59 402T144 485T301 511Q433 511 491 467T549 332Q549 264 509 233T375 201H226Q232 160 253 145T324 129Q415
129 519 141ZM271 388T255 381T232 354T223 295H324Q355 295 364 304T374 339Q374 368 358 378T300 388Q271 388 255 381ZM504 606L459 543L308 637H300L147 543L101 612L239 744H370L504 606Z" />
<glyph unicode="&#xeb;" glyph-name="edieresis" horiz-adv-x="576" d="M415 129T519 141L535 30Q452 -12 304 -12Q157 -12 95 50T32 246Q32 345 59 402T144 485T301 511Q433 511 491 467T549 332Q549 264 509 233T375 201H226Q232 160 253 145T324 129Q415 129
519 141ZM271 388T255 381T232 354T223 295H324Q355 295 364 304T374 339Q374 368 358 378T300 388Q271 388 255 381ZM275 717T275 681V621Q275 584 239 584H180Q144 584 144 621V681Q144 717 180 717H239Q275 717 275 681ZM461 717T461 681V621Q461 584 425 584H366Q329
584 329 621V681Q329 717 366 717H425Q461 717 461 681Z" />
<glyph unicode="&#xec;" glyph-name="igrave" horiz-adv-x="293" d="M238 0H55V497H238V0ZM491 633L440 558L199 663L272 783L491 633Z" />
<glyph unicode="&#xed;" glyph-name="iacute" horiz-adv-x="293" d="M238 0H55V497H238V0ZM341 652L99 546L48 622L267 771L341 652Z" />
<glyph unicode="&#xee;" glyph-name="icircumflex" horiz-adv-x="293" d="M238 0H55V497H238V0ZM601 606L556 543L405 637H397L244 543L198 612L336 744H467L601 606Z" />
<glyph unicode="&#xef;" glyph-name="idieresis" horiz-adv-x="293" d="M238 0H55V497H238V0ZM372 717T372 681V621Q372 584 336 584H277Q241 584 241 621V681Q241 717 277 717H336Q372 717 372 681ZM558 717T558 681V621Q558 584 522 584H463Q426 584 426 621V681Q426
717 463 717H522Q558 717 558 681Z" />
<glyph unicode="&#xf0;" glyph-name="eth" horiz-adv-x="590" d="M510 530T533 456T556 289Q556 179 529 113T444 17T290 -14Q158 -14 95 41T32 215Q32 338 83 395T252 452Q313 452 353 437Q337 515 293 549T164 584Q153 584 125 582L141 698Q155 699 181 699Q278
699 349 668L432 751L535 651L465 583Q510 530 533 456ZM324 115T339 130T360 180T365 289V319Q328 324 294 324Q267 324 252 316T230 285T223 218Q223 158 237 137T292 115Q324 115 339 130Z" />
<glyph unicode="&#xf1;" glyph-name="ntilde" horiz-adv-x="611" d="M490 511T526 476T563 372V0H381V315Q381 339 372 348T340 357Q317 357 293 351T233 331V0H51V497H196L211 424Q262 467 315 489T419 511Q490 511 526 476ZM237 729T260 723T312 706Q354 690
376 686Q380 685 387 685Q402 685 405 693T409 726H485Q489 703 489 680Q489 626 465 597T402 570Q376 572 354 578T297 597Q260 612 236 616Q232 617 225 617Q211 617 208 608T204 575H128Q124 596 124 620Q124 676 149 704T211 731Q237 729 260 723Z" />
<glyph unicode="&#xf2;" glyph-name="ograve" horiz-adv-x="600" d="M399 511T457 485T541 402T568 248Q568 151 542 95T458 14T300 -12Q201 -12 143 13T59 95T32 248Q32 345 58 402T143 485T300 511Q399 511 457 485ZM268 383T252 372T230 333T223 248Q223 192
229 164T252 126T300 115Q332 115 348 125T370 164T377 248Q377 304 371 332T348 372T300 383Q268 383 252 372ZM391 624L340 549L99 654L172 774L391 624Z" />
<glyph unicode="&#xf3;" glyph-name="oacute" horiz-adv-x="600" d="M399 511T457 485T541 402T568 248Q568 151 542 95T458 14T300 -12Q201 -12 143 13T59 95T32 248Q32 345 58 402T143 485T300 511Q399 511 457 485ZM268 383T252 372T230 333T223 248Q223 192
229 164T252 126T300 115Q332 115 348 125T370 164T377 248Q377 304 371 332T348 372T300 383Q268 383 252 372ZM498 643L256 537L205 613L424 762L498 643Z" />
<glyph unicode="&#xf4;" glyph-name="ocircumflex" horiz-adv-x="600" d="M399 511T457 485T541 402T568 248Q568 151 542 95T458 14T300 -12Q201 -12 143 13T59 95T32 248Q32 345 58 402T143 485T300 511Q399 511 457 485ZM268 383T252 372T230 333T223 248Q223
192 229 164T252 126T300 115Q332 115 348 125T370 164T377 248Q377 304 371 332T348 372T300 383Q268 383 252 372ZM501 853L456 790L305 884H297L144 790L98 859L236 991H367L501 853Z" />
<glyph unicode="&#xf5;" glyph-name="otilde" horiz-adv-x="600" d="M399 511T457 485T541 402T568 248Q568 151 542 95T458 14T300 -12Q201 -12 143 13T59 95T32 248Q32 345 58 402T143 485T300 511Q399 511 457 485ZM268 383T252 372T230 333T223 248Q223 192
229 164T252 126T300 115Q332 115 348 125T370 164T377 248Q377 304 371 332T348 372T300 383Q268 383 252 372ZM227 721T250 715T302 698Q344 682 366 678Q370 677 377 677Q392 677 395 685T399 718H475Q479 695 479 672Q479 618 455 589T392 562Q366 564 344
570T287 589Q250 604 226 608Q222 609 215 609Q201 609 198 600T194 567H118Q114 588 114 612Q114 668 139 696T201 723Q227 721 250 715Z" />
<glyph unicode="&#xf6;" glyph-name="odieresis" horiz-adv-x="600" d="M399 511T457 485T541 402T568 248Q568 151 542 95T458 14T300 -12Q201 -12 143 13T59 95T32 248Q32 345 58 402T143 485T300 511Q399 511 457 485ZM268 383T252 372T230 333T223 248Q223
192 229 164T252 126T300 115Q332 115 348 125T370 164T377 248Q377 304 371 332T348 372T300 383Q268 383 252 372ZM272 964T272 928V868Q272 831 236 831H177Q141 831 141 868V928Q141 964 177 964H236Q272 964 272 928ZM458 964T458 928V868Q458 831 422 831H363Q326
831 326 868V928Q326 964 363 964H422Q458 964 458 928Z" />
<glyph unicode="&#xf7;" glyph-name="divide" horiz-adv-x="543" d="M331 565T345 551T359 498V473Q359 435 345 421T293 407H249Q211 407 197 421T183 473V498Q183 536 197 550T249 565H293Q331 565 345 551ZM507 229H36V356H507V229ZM331 176T345 162T359 109V85Q359
47 345 33T293 18H249Q211 18 197 32T183 85V109Q183 147 197 161T249 176H293Q331 176 345 162Z" />
<glyph unicode="&#xf8;" glyph-name="oslash" horiz-adv-x="600" d="M527 443T547 389T568 248Q568 151 542 95T458 14T300 -12Q280 -12 248 -10L204 -102L82 -40L115 29Q72 58 52 111T32 248Q32 345 58 402T143 485T300 511Q332 511 347 509L393 606L515 543L481
473Q527 443 547 389ZM332 115T348 125T370 164T377 248Q377 304 371 332T348 372T300 383Q268 383 252 372T230 333T223 248Q223 192 229 164T252 126T300 115Q332 115 348 125Z" />
<glyph unicode="&#xf9;" glyph-name="ugrave" horiz-adv-x="604" d="M553 497V0H409L394 71Q343 28 294 7T192 -14Q121 -14 85 21T48 125V497H230V182Q230 159 240 149T274 139Q295 139 316 144T370 164V497H553ZM391 634L340 559L99 664L172 784L391 634Z" />
<glyph unicode="&#xfa;" glyph-name="uacute" horiz-adv-x="604" d="M553 497V0H409L394 71Q343 28 294 7T192 -14Q121 -14 85 21T48 125V497H230V182Q230 159 240 149T274 139Q295 139 316 144T370 164V497H553ZM497 653L255 547L204 623L423 772L497 653Z" />
<glyph unicode="&#xfb;" glyph-name="ucircumflex" horiz-adv-x="604" d="M553 497V0H409L394 71Q343 28 294 7T192 -14Q121 -14 85 21T48 125V497H230V182Q230 159 240 149T274 139Q295 139 316 144T370 164V497H553ZM501 607L456 544L305 638H297L144 544L98
613L236 745H367L501 607Z" />
<glyph unicode="&#xfc;" glyph-name="udieresis" horiz-adv-x="604" d="M553 497V0H409L394 71Q343 28 294 7T192 -14Q121 -14 85 21T48 125V497H230V182Q230 159 240 149T274 139Q295 139 316 144T370 164V497H553ZM272 718T272 682V622Q272 585 236 585H177Q141
585 141 622V682Q141 718 177 718H236Q272 718 272 682ZM458 718T458 682V622Q458 585 422 585H363Q326 585 326 622V682Q326 718 363 718H422Q458 718 458 682Z" />
<glyph unicode="&#xfd;" glyph-name="yacute" horiz-adv-x="584" d="M581 497L415 5Q387 -81 326 -142T165 -204Q142 -204 110 -199L97 -98Q156 -84 191 -62T245 0H213Q192 0 177 11T155 43L2 497H195L269 201Q275 171 283 116H294Q301 142 314 201L388 497H581ZM493
652L251 546L200 622L419 771L493 652Z" />
<glyph unicode="&#xfe;" glyph-name="thorn" horiz-adv-x="608" d="M490 509T532 443T574 243Q574 144 554 88T493 9T388 -14Q291 -14 229 28Q234 -32 233 -76V-185H51V700H233V584Q234 547 227 451Q288 509 394 509Q490 509 532 443ZM343 110T358 120T380 158T387
242Q387 298 380 326T359 365T319 375Q295 375 277 368T233 346V128Q280 110 316 110Q343 110 358 120Z" />
<glyph unicode="&#xff;" glyph-name="ydieresis" horiz-adv-x="584" d="M581 497L415 5Q387 -81 326 -142T165 -204Q142 -204 110 -199L97 -98Q156 -84 191 -62T245 0H213Q192 0 177 11T155 43L2 497H195L269 201Q275 171 283 116H294Q301 142 314 201L388 497H581ZM267
717T267 681V621Q267 584 231 584H172Q136 584 136 621V681Q136 717 172 717H231Q267 717 267 681ZM453 717T453 681V621Q453 584 417 584H358Q321 584 321 621V681Q321 717 358 717H417Q453 717 453 681Z" />
<glyph unicode="&#x2013;" glyph-name="endash" horiz-adv-x="543" d="M493 201H50V311H493V201Z" />
<glyph unicode="&#x2014;" glyph-name="emdash" horiz-adv-x="836" d="M786 201H50V311H786V201Z" />
<glyph unicode="&#x2018;" glyph-name="quoteleft" horiz-adv-x="222" d="M65 420T53 432T39 477V535Q39 594 52 634T93 715L157 695Q143 648 141 574Q187 574 189 524L187 477Q186 445 174 433T130 420H96Q65 420 53 432Z" />
<glyph unicode="&#x2019;" glyph-name="quoteright" horiz-adv-x="219" d="M157 706T169 694T182 649V591Q182 532 169 492T128 411L64 431Q79 481 79 552Q34 552 32 603L34 649Q35 682 47 694T91 706H125Q157 706 169 694Z" />
<glyph unicode="&#x201a;" glyph-name="quotesinglbase" horiz-adv-x="233" d="M166 166T178 153T190 105L191 42Q190 -21 177 -64T137 -151L73 -130Q88 -76 88 0Q65 0 53 14T41 55L43 105Q44 139 56 152T99 166H134Q166 166 178 153Z" />
<glyph unicode="&#x201c;" glyph-name="quotedblleft" horiz-adv-x="412" d="M65 420T53 432T39 477V535Q39 594 52 634T93 715L157 695Q143 648 141 574Q187 574 189 524L187 477Q186 445 174 433T130 420H96Q65 420 53 432ZM255 420T243 432T229 477V535Q229
594 242 634T283 715L347 695Q332 645 332 574Q377 574 379 524L377 477Q376 445 364 433T320 420H286Q255 420 243 432Z" />
<glyph unicode="&#x201d;" glyph-name="quotedblright" horiz-adv-x="409" d="M157 706T169 694T182 649V591Q182 532 169 492T128 411L64 431Q79 481 79 552Q34 552 32 603L34 649Q35 682 47 694T91 706H125Q157 706 169 694ZM347 706T359 694T372 649V591Q372
532 359 492T318 411L254 431Q268 478 270 552Q224 552 222 603L224 649Q225 682 237 694T281 706H315Q347 706 359 694Z" />
<glyph unicode="&#x201e;" glyph-name="quotedblbase" horiz-adv-x="422" d="M165 144T177 132T190 87V28Q190 -30 177 -70T136 -152L72 -132Q87 -82 87 -11Q42 -11 40 40L42 87Q43 119 55 131T99 144H133Q165 144 177 132ZM355 144T367 132T380 87V28Q380 -30
367 -70T326 -152L262 -132Q276 -85 278 -11Q232 -11 230 40L232 87Q233 119 245 131T289 144H323Q355 144 367 132Z" />
<glyph unicode="&#x2022;" glyph-name="bullet" horiz-adv-x="377" d="M263 392T288 367T313 279V263Q313 195 288 169T200 143H184Q138 143 112 154T75 191T64 263V279Q64 342 90 367T184 392H200Q263 392 288 367Z" />
<glyph unicode="&#x2039;" glyph-name="guilsinglleft" horiz-adv-x="314" d="M280 407L186 251L281 89L185 29L27 232V270L185 468L280 407Z" />
<glyph unicode="&#x203a;" glyph-name="guilsinglright" horiz-adv-x="315" d="M288 270V232L129 29L34 89L129 251L34 407L129 468L288 270Z" />
</font>
</defs>
</svg>
